<svg width="657" height="120" viewBox="0 0 657 120" fill="none" xmlns="http://www.w3.org/2000/svg">
<g clip-path="url(#clip0_14_388)">
<path d="M145.059 32.4997V50.4104H173.879V67.0661H145.059V86.4909H177.655V103.774H123.546V15.2166H177.655V32.4997H145.059Z" fill="#F2D883"/>
<path d="M231.26 103.774L217.795 84.2196L206.467 103.774H183.186L206.318 67.8231L182.56 33.4205H206.719L220.183 52.8453L231.511 33.4205H254.793L231.26 68.8871L255.419 103.829L231.26 103.774Z" fill="#F2D883"/>
<path d="M258.651 49.4078C261.114 44.2406 264.973 39.8691 269.789 36.7898C274.503 33.841 279.962 32.3095 285.519 32.377C290.046 32.2764 294.526 33.3177 298.548 35.4053C302.077 37.2321 305.052 39.9765 307.161 43.3512V33.4205H328.681V103.808H307.161V93.8093C304.979 97.1692 301.967 99.9065 298.418 101.755C294.399 103.842 289.921 104.883 285.396 104.783C279.872 104.836 274.451 103.282 269.789 100.309C264.967 97.1795 261.111 92.7654 258.651 87.5617C255.93 82.0598 254.569 75.694 254.569 68.4643C254.569 61.2345 255.93 54.8824 258.651 49.4078ZM302.698 55.8395C301.291 54.3701 299.603 53.1999 297.735 52.3987C295.867 51.5974 293.857 51.1815 291.825 51.1758C289.793 51.1701 287.781 51.5746 285.909 52.3653C284.036 53.156 282.342 54.3167 280.926 55.7781C277.946 58.8473 276.456 63.0715 276.456 68.4506C276.456 73.8297 277.946 78.0994 280.926 81.2595C282.321 82.7497 284.005 83.9386 285.875 84.7532C287.744 85.5677 289.76 85.9909 291.799 85.9966C293.837 86.0024 295.856 85.5906 297.73 84.7866C299.604 83.9826 301.294 82.8032 302.698 81.3209C305.669 78.2108 307.156 73.9639 307.161 68.5802C307.165 63.1966 305.678 58.9496 302.698 55.8395Z" fill="#F2D883"/>
<path d="M443.083 15.2166V103.774H421.563V50.6696L401.833 103.774H384.443L364.556 50.54V103.774H343.036V15.2166H368.461L393.246 76.5261L417.787 15.2166H443.083Z" fill="#F2D883"/>
<path d="M457.765 49.4078C460.225 44.2392 464.084 39.8672 468.902 36.7898C473.616 33.8403 479.076 32.3088 484.632 32.377C489.157 32.2772 493.635 33.3185 497.654 35.4053C501.186 37.2319 504.163 39.9762 506.274 43.3512V33.4205H527.794V103.808H506.274V93.8093C504.09 97.1678 501.079 99.9047 497.532 101.755C493.51 103.843 489.03 104.884 484.503 104.783C478.981 104.835 473.562 103.281 468.902 100.309C464.079 97.1814 460.222 92.7668 457.765 87.5617C455.043 82.0598 453.683 75.694 453.683 68.4643C453.683 61.2345 455.043 54.8824 457.765 49.4078ZM501.811 55.8395C500.404 54.3702 498.716 53.1999 496.848 52.3987C494.98 51.5974 492.97 51.1815 490.938 51.1758C488.907 51.1701 486.894 51.5746 485.022 52.3653C483.149 53.1561 481.455 54.3167 480.04 55.7781C477.06 58.8474 475.57 63.0715 475.57 68.4506C475.57 73.8297 477.06 78.0994 480.04 81.2595C481.435 82.7497 483.119 83.9386 484.988 84.7532C486.858 85.5677 488.874 85.9909 490.912 85.9966C492.951 86.0024 494.969 85.5906 496.843 84.7866C498.717 83.9826 500.408 82.8032 501.811 81.3209C504.782 78.2108 506.27 73.9639 506.274 68.5802C506.279 63.1966 504.791 58.9497 501.811 55.8395Z" fill="#F2D883"/>
<path d="M580.596 85.4814V103.774H569.642C561.845 103.774 555.763 101.862 551.395 98.038C547.027 94.214 544.848 87.9687 544.857 79.3021V51.2971H536.298V33.4205H544.857V27.4662C544.856 25.9904 545.145 24.529 545.708 23.1653C546.27 21.8016 547.096 20.5624 548.136 19.5186C549.177 18.4748 550.413 17.6467 551.772 17.0818C553.132 16.5168 554.59 16.226 556.062 16.226H566.37V33.4205H580.467V51.2971H566.37V79.5544C566.37 81.6551 566.873 83.1693 567.88 84.0969C568.887 85.0245 570.601 85.461 572.915 85.461L580.596 85.4814Z" fill="#F2D883"/>
<path d="M655.755 73.7501H607.055C607.39 78.1289 608.796 81.4732 611.273 83.7831C613.742 86.0947 617.019 87.3393 620.396 87.2479C625.762 87.2479 629.495 84.9744 631.595 80.4274H654.503C653.345 85.015 651.173 89.283 648.148 92.9157C645.024 96.6645 641.083 99.6443 636.63 101.626C631.761 103.78 626.486 104.857 621.165 104.783C614.767 104.902 608.445 103.384 602.796 100.371C597.474 97.4719 593.104 93.0891 590.216 87.7526C587.195 82.2962 585.685 75.9054 585.685 68.5802C585.685 61.255 587.172 54.8641 590.148 49.4077C593.002 44.0641 597.357 39.6771 602.673 36.7898C608.043 33.8433 614.21 32.3724 621.172 32.3769C627.474 32.2584 633.705 33.7314 639.29 36.6602C644.516 39.4694 648.82 43.7327 651.686 48.9371C654.657 54.2298 656.145 60.4092 656.149 67.4753C656.137 69.5727 656.005 71.6678 655.755 73.7501ZM634.092 61.7665C634.092 58.0698 632.833 55.1142 630.316 52.8998C627.683 50.6743 624.321 49.5055 620.879 49.6192C617.555 49.5188 614.31 50.6422 611.756 52.7771C609.279 54.8778 607.749 57.8629 607.163 61.7324L634.092 61.7665Z" fill="#F2D883"/>
<path d="M50.1087 101.38C46.2472 101.408 42.4005 100.898 38.6787 99.8659L42.5363 120H42.6996C44.4882 119.966 46.2076 119.3 47.5543 118.12C48.9011 116.94 49.7889 115.32 50.0611 113.548C50.3604 111.952 51.7279 111.004 54.0139 111.004C56.6809 111.004 58.6948 112.313 60.2188 114.414C61.4849 116.149 63.142 117.559 65.055 118.53C66.9681 119.5 69.0828 120.004 71.227 120H71.4379L66.1311 98.1198C62.1102 100.132 56.4224 101.38 50.1087 101.38Z" fill="#F2D883"/>
<path d="M46.0805 40.6161C57.0887 36.783 65.4911 30.9787 67.1716 26.4704C67.5296 25.6347 67.5755 24.6977 67.3009 23.8308L66.2939 20.939L64.8448 16.7853L54.517 19.9432L63.4228 12.6793L65.4639 10.831L74.7576 2.53041L31.9768 0L0 28.6461L6.74233 29.0417L8.0214 29.1167H8.16428V38.8769C7.74717 39.0315 7.38731 39.3105 7.1331 39.6763C6.87888 40.0421 6.74252 40.4772 6.74233 40.923V47.0615C6.72571 47.3607 6.77013 47.6601 6.87289 47.9414C6.97564 48.2228 7.13457 48.4802 7.33995 48.6979C7.54533 48.9155 7.79284 49.0889 8.06735 49.2074C8.34186 49.3259 8.6376 49.3871 8.93648 49.3871C9.23536 49.3871 9.5311 49.3259 9.80561 49.2074C10.0801 49.0889 10.3276 48.9155 10.533 48.6979C10.7384 48.4802 10.8973 48.2228 11.0001 47.9414C11.1028 47.6601 11.1473 47.3607 11.1306 47.0615V40.923C11.13 40.4782 10.9943 40.0442 10.7415 39.6787C10.4886 39.3131 10.1308 39.0335 9.71549 38.8769V29.1849L11.3483 29.2873L15.1856 29.5123L19.05 40.6707C20.6488 45.2882 32.7456 45.2677 46.0805 40.6161Z" fill="#F2D883"/>
<path d="M100.971 51.6244L100.863 44.4083C100.863 42.3622 100.182 40.6093 98.2976 40.1114L97.9711 16.9899C97.9666 16.5821 97.8819 16.1792 97.7217 15.8043C97.5615 15.4294 97.329 15.0899 97.0376 14.8054C96.7461 14.5208 96.4015 14.2968 96.0235 14.1461C95.6454 13.9955 95.2414 13.9212 94.8346 13.9275L91.671 13.9684C91.2644 13.9738 90.8629 14.0593 90.4894 14.2202C90.1158 14.3811 89.7776 14.6142 89.4939 14.9062C89.2102 15.1982 88.9867 15.5433 88.8361 15.9219C88.6855 16.3005 88.6108 16.7051 88.6162 17.1127L88.9155 40.241C87.0241 40.8003 86.4798 42.5395 86.5139 44.613V45.3837C86.5139 45.636 78.3496 46.359 77.5808 46.4272C69.0287 47.1434 60.4222 47.3548 51.8497 47.7436L37.5622 48.4256C34.5142 48.4566 31.4775 48.8018 28.4999 49.4555C22.1725 51.0652 18.2945 57.2991 19.1109 63.6763C19.6091 68.3414 21.72 72.6847 25.0777 75.9532C27.0031 77.8493 30.3096 80.1955 32.235 82.0916C31.7792 75.8031 31.2553 70.9947 31.4594 65.6815C31.4594 65.8043 31.4594 65.9339 31.507 66.0566L35.6912 83.5922L38.229 94.2663L38.2766 94.4572L38.5215 94.6141C40.6578 95.9782 43.3657 96.6057 45.8422 96.9399C48.7051 97.3094 51.6102 97.1778 54.4283 96.5511C56.7279 96.0532 58.8438 95.262 60.5515 93.5637C61.6989 92.4238 62.5515 91.0203 63.0353 89.4752C63.519 87.93 63.6192 86.2899 63.3273 84.6971L62.3068 75.9873C62.0278 72.352 61.7965 68.437 63.7355 65.3473C65.2698 63.13 67.503 61.4941 70.0765 60.7025C74.0293 59.3384 79.0367 58.5609 82.282 55.7918C84.6111 53.7642 86.1009 50.9377 86.4594 47.8663V48.071C86.4768 48.0153 86.4973 47.9607 86.5207 47.9073L86.5751 51.8632C86.5751 53.9093 87.1942 55.6554 89.0992 56.1669L89.487 84.3629C89.4893 85.6097 89.9705 86.8078 90.8307 87.7083C91.691 88.6088 92.8642 89.1425 94.1066 89.1986C94.7349 89.2087 95.3587 89.0922 95.9411 88.8558C96.5234 88.6195 97.0525 88.2682 97.4968 87.8228C97.941 87.3774 98.2915 86.8471 98.5272 86.2632C98.763 85.6794 98.8793 85.054 98.8691 84.4243L98.4745 56.0237C100.407 55.4371 100.999 53.6911 100.971 51.6244Z" fill="#F2D883"/>
<path d="M92.8143 2.27808L89.7051 10.3672L96.1481 10.2785L92.8143 2.27808Z" fill="#F2D883"/>
</g>
<defs>
<clipPath id="clip0_14_388">
<rect width="656.129" height="120" fill="white"/>
</clipPath>
</defs>
</svg>
