<svg width="430" height="508" viewBox="0 0 430 508" fill="none" xmlns="http://www.w3.org/2000/svg">
<g clip-path="url(#clip0_14_368)">
<path d="M213.392 429.175C196.947 429.293 180.565 427.136 164.716 422.765L181.144 508H181.839C189.456 507.857 196.778 505.038 202.514 500.041C208.249 495.044 212.03 488.189 213.189 480.686C214.464 473.929 220.288 469.916 230.023 469.916C241.38 469.916 249.957 475.459 256.447 484.353C261.839 491.696 268.896 497.666 277.043 501.776C285.189 505.885 294.195 508.018 303.326 508H304.225L281.625 415.374C264.502 423.891 240.279 429.175 213.392 429.175Z" fill="#8FA3EE"/>
<path d="M196.239 171.942C243.119 155.715 278.902 131.143 286.058 112.058C287.583 108.52 287.778 104.554 286.609 100.884L282.321 88.6416L276.149 71.0576L232.167 84.4261L270.094 53.6758L278.786 45.8511L318.364 10.7121L136.177 0L0 121.269L28.713 122.943L34.1601 123.261H34.7685V164.579C32.9922 165.233 31.4597 166.415 30.3771 167.963C29.2945 169.512 28.7138 171.354 28.713 173.241V199.227C28.6422 200.493 28.8314 201.761 29.269 202.952C29.7066 204.143 30.3834 205.233 31.258 206.154C32.1327 207.076 33.1867 207.81 34.3558 208.311C35.5248 208.813 36.7843 209.072 38.0571 209.072C39.3299 209.072 40.5893 208.813 41.7584 208.311C42.9274 207.81 43.9815 207.076 44.8561 206.154C45.7307 205.233 46.4075 204.143 46.8451 202.952C47.2827 201.761 47.4719 200.493 47.4011 199.227V173.241C47.3984 171.358 46.8203 169.52 45.7437 167.973C44.6671 166.426 43.1431 165.242 41.3746 164.579V123.55L48.3283 123.983L64.6695 124.936L81.1266 172.173C87.9354 191.72 139.451 191.633 196.239 171.942Z" fill="#8FA3EE"/>
<path d="M430 218.543L429.537 187.995C429.537 179.333 426.639 171.913 418.614 169.805L417.223 71.9238C417.204 70.1974 416.843 68.4917 416.161 66.9047C415.479 65.3177 414.489 63.8806 413.247 62.676C412.006 61.4714 410.539 60.523 408.929 59.8852C407.319 59.2474 405.598 58.9329 403.866 58.9596L390.393 59.1328C388.662 59.1554 386.952 59.5177 385.361 60.1988C383.771 60.88 382.33 61.8668 381.122 63.1029C379.914 64.3389 378.962 65.8 378.321 67.4027C377.679 69.0053 377.361 70.7182 377.384 72.4435L378.659 170.353C370.604 172.721 368.286 180.084 368.431 188.861V192.124C368.431 193.192 333.662 196.253 330.388 196.542C293.968 199.573 257.317 200.468 220.81 202.114L159.965 205.002C146.984 205.133 134.052 206.594 121.372 209.362C94.4259 216.176 77.9109 242.566 81.3877 269.563C83.5091 289.312 92.4986 307.699 106.798 321.535C114.997 329.562 129.079 339.494 137.278 347.521C135.337 320.9 133.106 300.544 133.975 278.052C133.975 278.571 133.975 279.12 134.178 279.64L151.997 353.873L162.804 399.06L163.007 399.869L164.05 400.533C173.148 406.308 184.679 408.964 195.226 410.379C207.418 411.943 219.79 411.386 231.791 408.733C241.584 406.625 250.595 403.276 257.867 396.086C262.754 391.261 266.385 385.319 268.445 378.778C270.505 372.237 270.932 365.294 269.688 358.551L265.342 321.679C264.154 306.29 263.169 289.716 271.427 276.637C277.961 267.25 287.471 260.325 298.43 256.974C315.264 251.199 336.589 247.908 350.409 236.185C360.328 227.602 366.672 215.636 368.199 202.634V203.5C368.273 203.265 368.36 203.033 368.46 202.807L368.692 219.554C368.692 228.216 371.328 235.608 379.441 237.773L381.093 357.136C381.102 362.414 383.151 367.486 386.815 371.298C390.478 375.11 395.475 377.37 400.766 377.607C403.441 377.65 406.098 377.157 408.578 376.156C411.058 375.156 413.311 373.669 415.203 371.783C417.095 369.898 418.587 367.652 419.591 365.181C420.595 362.709 421.091 360.062 421.047 357.396L419.367 237.167C427.596 234.684 430.116 227.292 430 218.543Z" fill="#8FA3EE"/>
<path d="M395.261 9.6438L382.02 43.8877L409.458 43.5124L395.261 9.6438Z" fill="#8FA3EE"/>
</g>
<defs>
<clipPath id="clip0_14_368">
<rect width="430" height="508" fill="white"/>
</clipPath>
</defs>
</svg>
